<?xml version="1.0" encoding="utf-8"?>
<!-- Svg Vector Icons : http://www.onlinewebfonts.com/icon -->
<!DOCTYPE svg PUBLIC "-//W3C//DTD SVG 1.1//EN" "http://www.w3.org/Graphics/SVG/1.1/DTD/svg11.dtd">
<svg version="1.1" xmlns="http://www.w3.org/2000/svg" xmlns:xlink="http://www.w3.org/1999/xlink" x="0px" y="0px" viewBox="0 0 1000 1000" enable-background="new 0 0 1000 1000" xml:space="preserve">
<metadata> Svg Vector Icons : http://www.onlinewebfonts.com/icon </metadata>
<g><g transform="translate(0.000000,511.000000) scale(0.100000,-0.100000)"><path d="M5576.6,4194.8c-61.8-15.4-173.9-59.9-251.1-98.5c-148.8-77.3-266.6-187.4-1296.3-1207.4l-502.3-496.5l-1226.7-5.8c-1215.1-7.7-1228.7-7.7-1346.5-50.2c-332.3-119.8-577.6-341.9-730.2-666.5C97.9,1407.2,95.9,1382.1,101.7,54.9l5.8-1190l59.9-166.1c135.2-378.7,392.2-645.2,759.2-788.2l127.5-50.2l1232.5-5.8l1230.6-5.8l527.4-515.8C5248.1-3845.5,5196-3797.2,5352.5-3874.5c193.2-94.7,340-129.4,540.9-129.4c515.8,0,940.8,301.4,1137.9,807.5l50.2,129.4V101.3v3168.2l-46.4,143c-162.3,492.6-627.9,817.2-1168.8,811.4C5769.7,4223.8,5640.3,4210.3,5576.6,4194.8z M6154.2,3771.8c237.6-83.1,421.1-272.4,494.5-511.9c36.7-123.6,36.7-181.6,32.9-3187.5l-5.8-3062l-69.5-144.9c-162.3-334.2-483-508.1-830.7-448.2c-245.3,42.5-272.4,63.8-1093.4,871.3c-417.3,409.6-817.2,795.9-884.8,855.8l-125.6,112H2477.9c-1261.5,0-1350.4,5.8-1514.6,88.9c-200.9,102.4-388.3,359.3-438.5,602.7c-27,133.3-29,2177.2-1.9,2324c46.4,255,243.4,523.5,461.7,629.8l108.2,54.1l1294.3,9.7c712.8,5.8,1298.2,13.5,1302.1,15.4c3.9,1.9,218.3,210.6,473.3,463.6c1362,1342.6,1323.3,1307.9,1512.6,1356.2C5781.3,3825.8,6042.1,3810.4,6154.2,3771.8z"/><path d="M7655.2,2187.7c-73.4-61.8-92.7-139.1-56-224.1c42.5-102.4,75.4-117.8,280.1-137.2c573.8-50.2,1031.6-313,1329.1-761.1c202.8-305.2,287.9-593.1,285.9-964C9492.4-374,9332-758.4,8994-1096.5c-313-311-662.6-469.4-1118.5-504.2c-191.2-15.5-247.3-44.4-282-150.7c-27.1-83.1,11.6-185.5,86.9-235.7c42.5-27.1,81.1-30.9,247.3-21.3c359.3,21.3,755.4,156.5,1056.7,361.3c158.4,108.2,382.5,322.6,504.2,481c133.3,177.7,297.5,515.8,359.3,745.7c46.3,173.9,52.2,226,52.2,531.3c0,305.2-5.8,357.4-52.2,531.3c-96.6,361.3-278.2,680-542.9,952.4c-384.4,398-936.9,641.4-1452.7,641.4C7730.5,2236,7705.4,2230.2,7655.2,2187.7z"/><path d="M7738.3,1273.9c-58-11.6-141-98.5-154.6-158.4c-7.7-30.9,0-85,17.4-123.6c32.8-79.2,119.8-127.5,229.9-127.5c96.6,0,262.7-54.1,365.1-119.8c121.7-77.3,202.9-171.9,274.3-324.5c54.1-112,59.9-143,59.9-309.1c0-166.1-5.8-195.1-61.8-313c-114-243.4-343.9-407.6-604.7-432.7c-160.3-17.4-228-52.2-262.7-137.2c-38.6-88.9-19.3-166.1,54.1-227.9c48.3-40.6,77.3-48.3,177.7-48.3c484.9,0,952.4,374.8,1083.8,869.3c38.6,141,36.7,436.6-1.9,587.3c-79.2,307.2-313,596.9-600.8,739.9C8126.6,1243,7863.8,1299,7738.3,1273.9z"/></g></g>
</svg>